<?xml version="1.0" standalone="no"?>
<!DOCTYPE svg PUBLIC "-//W3C//DTD SVG 20010904//EN"
 "http://www.w3.org/TR/2001/REC-SVG-20010904/DTD/svg10.dtd">
<svg version="1.0" xmlns="http://www.w3.org/2000/svg"
 width="512.000000pt" height="512.000000pt" viewBox="0 0 512.000000 512.000000"
 preserveAspectRatio="xMidYMid meet">

<g transform="translate(0.000000,512.000000) scale(0.100000,-0.100000)"
fill="#000000" stroke="none">
<path d="M2374 4335 c-236 -42 -435 -143 -602 -308 -88 -86 -146 -165 -202
-277 -90 -181 -120 -308 -120 -514 0 -121 4 -159 26 -247 110 -436 427 -742
864 -835 134 -28 337 -24 466 9 227 59 370 140 534 306 144 144 237 313 291
526 18 74 22 117 22 245 1 136 -3 168 -27 263 -110 433 -418 729 -856 823
-105 22 -296 27 -396 9z m407 -109 c367 -84 655 -362 752 -729 29 -111 31
-386 4 -490 -35 -130 -84 -239 -156 -346 -199 -293 -570 -468 -912 -431 -251
28 -439 114 -617 285 -140 134 -232 294 -282 490 -27 107 -33 345 -12 430 29
112 36 133 63 205 42 108 116 217 211 314 116 116 255 204 394 250 160 52 382
61 555 22z"/>
<path d="M2558 4089 c-10 -5 -29 -29 -43 -53 -36 -61 -34 -133 5 -211 35 -72
37 -104 9 -162 -24 -51 -20 -73 16 -73 38 0 78 67 83 139 4 50 0 66 -28 120
-27 51 -32 70 -27 107 2 26 15 60 27 77 17 22 20 34 13 46 -13 20 -33 24 -55
10z"/>
<path d="M2322 3979 c-30 -11 -66 -91 -59 -133 3 -17 20 -55 37 -84 l33 -52
-17 -43 c-21 -55 -20 -64 5 -77 17 -9 25 -8 41 7 56 50 63 125 19 195 -41 64
-44 79 -22 122 28 54 12 83 -37 65z"/>
<path d="M2738 3963 c-14 -16 -31 -45 -38 -66 -14 -44 -6 -72 34 -132 22 -32
26 -47 21 -75 -4 -19 -11 -39 -16 -45 -16 -16 -10 -44 13 -56 19 -10 25 -8 49
19 16 17 33 50 40 72 13 43 4 72 -48 153 -17 26 -17 29 1 79 17 50 17 52 0 65
-24 18 -26 17 -56 -14z"/>
<path d="M2063 3472 l-123 -3 -6 -26 c-13 -50 3 -285 25 -371 47 -183 141
-328 264 -410 20 -13 37 -29 37 -33 0 -5 -63 -9 -139 -9 -91 0 -142 -4 -147
-11 -11 -18 29 -62 82 -89 l49 -25 425 0 425 0 55 31 c35 20 58 41 65 58 14
41 -5 48 -125 41 -58 -3 -118 -2 -134 3 l-28 8 41 29 c48 33 141 130 168 175
15 26 22 30 45 25 39 -9 135 13 192 43 98 53 163 168 153 271 -12 112 -90 186
-210 198 -57 6 -57 6 -57 39 0 67 17 65 -483 62 -249 -2 -507 -4 -574 -6z
m1169 -214 c25 -12 48 -61 48 -102 0 -69 -34 -122 -102 -157 -37 -19 -118 -36
-118 -25 0 3 9 38 20 77 11 39 22 104 26 145 5 55 11 74 23 77 20 6 81 -3 103
-15z"/>
<path d="M935 1926 c-46 -21 -83 -66 -94 -116 -13 -56 -14 -381 -1 -434 19
-85 81 -131 175 -131 104 0 175 69 175 169 l0 46 -55 0 -55 0 0 -40 c0 -54
-30 -85 -74 -76 -54 11 -56 20 -56 252 0 209 0 213 22 228 53 37 99 11 107
-60 l6 -49 50 0 50 0 0 62 c0 66 -16 98 -68 137 -35 26 -138 33 -182 12z"/>
<path d="M1370 1918 c-83 -43 -85 -49 -88 -301 -2 -141 1 -236 8 -259 26 -90
132 -137 235 -104 61 19 99 56 115 114 13 49 13 396 -1 447 -30 109 -160 158
-269 103z m141 -97 c22 -18 23 -25 27 -203 5 -206 -3 -253 -45 -269 -37 -14
-52 -11 -78 16 -25 24 -25 25 -25 228 0 207 3 227 40 240 30 11 58 7 81 -12z"/>
<path d="M1755 1927 c-3 -6 -4 -161 -3 -342 l3 -330 50 0 50 0 3 142 3 142 77
3 77 3 3 47 3 47 -78 3 -78 3 -3 92 -3 92 93 3 93 3 3 48 3 47 -123 1 c-68 0
-133 2 -146 5 -12 2 -25 -2 -27 -9z"/>
<path d="M2144 1925 c-3 -6 -3 -159 -2 -340 l3 -330 50 0 50 0 3 142 3 142 77
3 77 3 0 45 0 45 -75 5 -75 5 -3 92 -3 92 93 3 93 3 3 47 3 47 -147 3 c-92 2
-148 -1 -150 -7z"/>
<path d="M3041 1931 c-14 -9 -143 -658 -134 -673 7 -13 91 -9 100 5 4 6 13 37
18 67 l10 55 75 0 75 0 8 -55 c12 -74 21 -83 75 -77 23 2 45 6 47 9 3 3 -17
115 -55 303 -5 28 -24 120 -41 205 -17 85 -32 156 -33 156 -8 8 -134 12 -145
5z m89 -252 c5 -35 14 -84 19 -109 6 -25 10 -58 11 -73 0 -28 -1 -28 -52 -25
-62 4 -61 -8 -27 182 23 129 32 133 49 25z"/>
<path d="M3404 1925 c-2 -5 -3 -159 -2 -340 l3 -330 50 0 50 0 5 130 5 130 71
6 c79 6 133 32 152 74 7 15 12 72 12 131 0 164 -22 190 -178 205 -113 11 -163
9 -168 -6z m217 -105 c16 -9 19 -22 19 -92 0 -101 -11 -118 -82 -118 l-48 0 0
110 0 110 46 0 c25 0 54 -5 65 -10z"/>
<path d="M3840 1592 l0 -343 53 3 52 3 3 119 c1 67 7 126 14 133 6 8 32 13 65
13 64 0 121 26 149 67 15 23 19 47 19 133 0 177 -33 207 -233 212 l-122 3 0
-343z m236 213 c12 -19 15 -42 12 -96 -5 -85 -18 -99 -90 -99 l-48 0 0 110 0
110 55 0 c47 0 57 -3 71 -25z"/>
<path d="M2522 1593 l3 -338 150 0 150 0 0 50 0 50 -80 2 c-44 1 -86 2 -93 2
-10 1 -12 24 -10 94 l3 92 73 3 73 3 -3 47 -3 47 -72 3 -73 3 0 89 0 89 93 3
92 3 3 48 3 47 -156 0 -155 0 2 -337z"/>
<path d="M1840 951 c0 -48 5 -102 11 -120 23 -66 128 -86 188 -35 l31 26 0
109 0 109 -25 0 c-25 0 -25 -1 -25 -90 0 -84 -2 -93 -25 -116 -19 -18 -31 -23
-48 -19 -39 12 -47 34 -47 132 l0 93 -30 0 -30 0 0 -89z"/>
<path d="M2160 905 l0 -135 30 0 30 0 0 87 0 87 58 -85 c50 -73 61 -84 90 -87
l32 -3 0 135 0 136 -30 0 -29 0 -3 -87 -3 -88 -55 87 c-50 80 -58 87 -87 88
l-33 0 0 -135z"/>
<path d="M2497 1033 c-4 -3 -7 -64 -7 -135 l0 -128 105 0 c98 0 105 1 105 20
0 18 -7 20 -75 20 l-75 0 0 35 0 35 65 0 c63 0 65 1 65 25 0 24 -2 25 -65 25
-65 0 -65 0 -65 29 0 24 5 29 31 35 17 3 51 6 75 6 37 0 44 3 44 20 0 19 -7
20 -98 20 -54 0 -102 -3 -105 -7z"/>
<path d="M2780 905 l0 -135 30 0 29 0 3 93 3 92 31 -75 c26 -61 36 -76 56 -78
22 -3 28 5 56 75 l31 78 0 -92 1 -93 30 0 30 0 0 135 0 135 -38 0 -38 0 -33
-80 c-19 -44 -35 -80 -38 -80 -2 0 -11 17 -20 38 -50 121 -50 122 -93 122
l-40 0 0 -135z"/>
<path d="M3170 906 l0 -136 30 0 31 0 -3 133 -3 132 -27 3 -28 3 0 -135z"/>
</g>
</svg>
